[Header]
FileType HTR
DataType HTRS
FileVersion 1
NumSegments 64
NumFrames 4
DataFrameRate 30
EulerRotationOrder ZYX
CalibrationUnits mm
RotationUnits Degrees
GlobalAxisofGravity Y
BoneLengthAxis Y
ScaleFactor 1.0
[SegmentNames&Hierarchy]
Hips	GLOBAL
Spine	Hips
Spine1	Spine
Spine2	Spine1
Neck	Spine2
Head	Neck
LeftEye	Head
RightEye	Head
LeftShoulder	Spine2
LeftArm	LeftShoulder
LeftForeArm	LeftArm
LeftHand	LeftForeArm
LeftHandThumb1	LeftHand
LeftHandThumb2	LeftHandThumb1
LeftHandThumb3	LeftHandThumb2
LeftHandThumb4	LeftHandThumb3
LeftHandIndex1	LeftHand
LeftHandIndex2	LeftHandIndex1
LeftHandIndex3	LeftHandIndex2
LeftHandIndex4	LeftHandIndex3
LeftHandMiddle1	LeftHand
LeftHandMiddle2	LeftHandMiddle1
LeftHandMiddle3	LeftHandMiddle2
LeftHandMiddle4	LeftHandMiddle3
LeftHandRing1	LeftHand
LeftHandRing2	LeftHandRing1
LeftHandRing3	LeftHandRing2
LeftHandRing4	LeftHandRing3
LeftHandPinky1	LeftHand
LeftHandPinky2	LeftHandPinky1
LeftHandPinky3	LeftHandPinky2
LeftHandPinky4	LeftHandPinky3
RightShoulder	Spine2
RightArm	RightShoulder
RightForeArm	RightArm
RightHand	RightForeArm
RightHandPinky1	RightHand
RightHandPinky2	RightHandPinky1
RightHandPinky3	RightHandPinky2
RightHandPinky4	RightHandPinky3
RightHandRing1	RightHand
RightHandRing2	RightHandRing1
RightHandRing3	RightHandRing2
RightHandRing4	RightHandRing3
RightHandMiddle1	RightHand
RightHandMiddle2	RightHandMiddle1
RightHandMiddle3	RightHandMiddle2
RightHandMiddle4	RightHandMiddle3
RightHandIndex1	RightHand
RightHandIndex2	RightHandIndex1
RightHandIndex3	RightHandIndex2
RightHandIndex4	RightHandIndex3
RightHandThumb1	RightHand
RightHandThumb2	RightHandThumb1
RightHandThumb3	RightHandThumb2
RightHandThumb4	RightHandThumb3
LeftUpLeg	Hips
LeftLeg	LeftUpLeg
LeftFoot	LeftLeg
LeftToeBase	LeftFoot
RightUpLeg	Hips
RightLeg	RightUpLeg
RightFoot	RightLeg
RightToeBase	RightFoot
[BasePosition]
Hips	0	0	0	0	0	0	1
Spine	0	0	0	0	0	0	1
Spine1	0	0	0	0	0	0	1
Spine2	0	0	0	0	0	0	1
Neck	0	0	0	0	0	0	1
Head	0	0	0	0	0	0	1
LeftEye	0	0	0	0	0	0	1
RightEye	0	0	0	0	0	0	1
LeftShoulder	0	0	0	0	0	0	1
LeftArm	0	0	0	0	0	0	1
LeftForeArm	0	0	0	0	0	0	1
LeftHand	0	0	0	0	0	0	1
LeftHandThumb1	0	0	0	0	0	0	1
LeftHandThumb2	0	0	0	0	0	0	1
LeftHandThumb3	0	0	0	0	0	0	1
LeftHandThumb4	0	0	0	0	0	0	1
LeftHandIndex1	0	0	0	0	0	0	1
LeftHandIndex2	0	0	0	0	0	0	1
LeftHandIndex3	0	0	0	0	0	0	1
LeftHandIndex4	0	0	0	0	0	0	1
LeftHandMiddle1	0	0	0	0	0	0	1
LeftHandMiddle2	0	0	0	0	0	0	1
LeftHandMiddle3	0	0	0	0	0	0	1
LeftHandMiddle4	0	0	0	0	0	0	1
LeftHandRing1	0	0	0	0	0	0	1
LeftHandRing2	0	0	0	0	0	0	1
LeftHandRing3	0	0	0	0	0	0	1
LeftHandRing4	0	0	0	0	0	0	1
LeftHandPinky1	0	0	0	0	0	0	1
LeftHandPinky2	0	0	0	0	0	0	1
LeftHandPinky3	0	0	0	0	0	0	1
LeftHandPinky4	0	0	0	0	0	0	1
RightShoulder	0	0	0	0	0	0	1
RightArm	0	0	0	0	0	0	1
RightForeArm	0	0	0	0	0	0	1
RightHand	0	0	0	0	0	0	1
RightHandPinky1	0	0	0	0	0	0	1
RightHandPinky2	0	0	0	0	0	0	1
RightHandPinky3	0	0	0	0	0	0	1
RightHandPinky4	0	0	0	0	0	0	1
RightHandRing1	0	0	0	0	0	0	1
RightHandRing2	0	0	0	0	0	0	1
RightHandRing3	0	0	0	0	0	0	1
RightHandRing4	0	0	0	0	0	0	1
RightHandMiddle1	0	0	0	0	0	0	1
RightHandMiddle2	0	0	0	0	0	0	1
RightHandMiddle3	0	0	0	0	0	0	1
RightHandMiddle4	0	0	0	0	0	0	1
RightHandIndex1	0	0	0	0	0	0	1
RightHandIndex2	0	0	0	0	0	0	1
RightHandIndex3	0	0	0	0	0	0	1
RightHandIndex4	0	0	0	0	0	0	1
RightHandThumb1	0	0	0	0	0	0	1
RightHandThumb2	0	0	0	0	0	0	1
RightHandThumb3	0	0	0	0	0	0	1
RightHandThumb4	0	0	0	0	0	0	1
LeftUpLeg	0	0	0	0	0	0	1
LeftLeg	0	0	0	0	0	0	1
LeftFoot	0	0	0	0	0	0	1
LeftToeBase	0	0	0	0	0	0	1
RightUpLeg	0	0	0	0	0	0	1
RightLeg	0	0	0	0	0	0	1
RightFoot	0	0	0	0	0	0	1
RightToeBase	0	0	0	0	0	0	1
[Hips]
12	-2.249760151	977.130188	-4.069926739	-7.816737175	-44.7851181	4.902952194	1.0
13	-0.5474565625	963.9191284	-14.25123405	-6.474069118	-44.37512589	4.236404896	1.0
14	0.8675866723	945.2093506	-26.17253113	-5.015680313	-43.30643082	3.352805614	1.0
15	1.845341325	921.4881592	-39.31895447	-3.601904869	-41.8478508	2.624102116	1.0
[Spine]
12	0	101.8159943	1.315000057	1.836434007	0.4747496247	-0.2408421189	1.0
13	0	101.8159943	1.315000057	2.1126647	0.3971004784	-0.3138502836	1.0
14	0	101.8159943	1.315000057	2.478391409	0.188766703	-0.3419614732	1.0
15	0	101.8159943	1.315000057	2.82849431	0.02972005121	-0.329798311	1.0
[Spine1]
12	0	100.8349991	-10.00800037	3.673289061	0.7763528228	0.02232074738	1.0
13	0	100.8349991	-10.00800037	4.225586414	0.6115842462	-0.1657933444	1.0
14	0	100.8349991	-10.00800037	4.957408428	0.182557255	-0.2849251628	1.0
15	0	100.8349991	-10.00800037	5.658046246	-0.155357644	-0.2708208561	1.0
[Spine2]
12	0	91	-13.73399925	3.673288345	0.7763479352	0.02232097462	1.0
13	0	91	-13.73399925	4.225585938	0.6115792394	-0.1657931358	1.0
14	0	91	-13.73399925	4.957407475	0.1825626642	-0.2849254608	1.0
15	0	91	-13.73399925	5.658045292	-0.1553431004	-0.2708213031	1.0
[Neck]
12	0	166.7169952	-25.16200066	12.18259335	5.605480194	-1.549587727	1.0
13	0	166.7169952	-25.16200066	11.44056988	5.690054893	-1.311019659	1.0
14	0	166.7169952	-25.16200066	10.37528992	5.804404736	-1.179459333	1.0
15	0	166.7169952	-25.16200066	9.127122879	5.71010685	-1.061353326	1.0
[Head]
12	0	96.17900085	16.84999847	-4.801034451	29.14572906	-8.745872498	1.0
13	0	96.17900085	16.84999847	-7.651721954	29.50022697	-9.28617382	1.0
14	0	96.17900085	16.84999847	-11.06402397	29.41174507	-9.61380291	1.0
15	0	96.17900085	16.84999847	-14.15758133	28.53539276	-10.58728123	1.0
[LeftEye]
12	30.6760006	64.09500122	92.83599854	0	0	0	1.0
13	30.6760006	64.09500122	92.83599854	0	0	0	1.0
14	30.6760006	64.09500122	92.83599854	0	0	0	1.0
15	30.6760006	64.09500122	92.83599854	0	0	0	1.0
[RightEye]
12	-30.6760006	64.09500122	92.83499908	0	0	0	1.0
13	-30.6760006	64.09500122	92.83499908	0	0	0	1.0
14	-30.6760006	64.09500122	92.83499908	0	0	0	1.0
15	-30.6760006	64.09500122	92.83499908	0	0	0	1.0
[LeftShoulder]
12	45.70400238	109.4599991	-26.28000069	1.184620738	-19.83409691	-3.199102879	1.0
13	45.70400238	109.4599991	-26.28000069	1.153449535	-20.79006577	-2.984179497	1.0
14	45.70400238	109.4599991	-26.28000069	1.305077672	-21.32974243	-3.413239956	1.0
15	45.70400238	109.4599991	-26.28000069	1.760084629	-21.59765434	-4.814709187	1.0
[LeftArm]
12	105.923996	-5.24600029	-22.32099915	-30.78534889	6.059381962	-39.63515091	1.0
13	105.923996	-5.24600029	-22.32099915	-18.36775398	7.909604549	-44.32509232	1.0
14	105.923996	-5.24600029	-22.32099915	-7.562056065	10.0501318	-49.55349731	1.0
15	105.923996	-5.24600029	-22.32099915	-1.085351586	11.19914436	-54.57919693	1.0
[LeftForeArm]
12	278.414978	-0.0009999999311	0	-5.584046841	-117.3753738	2.940318346	1.0
13	278.414978	-0.0009999999311	0	-5.139546394	-115.2745895	2.898582697	1.0
14	278.414978	-0.0009999999311	0	-4.767410278	-110.6202698	3.131668091	1.0
15	278.414978	-0.0009999999311	0	-5.706344604	-100.8056107	4.849304199	1.0
[LeftHand]
12	283.2879944	0	0	15.57034874	2.279675484	14.24841213	1.0
13	283.2879944	0	0	26.1785717	0.7070745826	19.45420265	1.0
14	283.2879944	0	0	32.83116913	-0.1666752994	22.03401947	1.0
15	283.2879944	0	0	31.14746475	-0.854167521	21.50682449	1.0
[LeftHandThumb1]
12	24.6609993	-15.75	26.8239994	1.764576554	-8.167663574	5.012504578	1.0
13	24.6609993	-15.75	26.8239994	-0.7466452718	-5.384119987	6.657621861	1.0
14	24.6609993	-15.75	26.8239994	-3.007857561	-2.9538095	8.126586914	1.0
15	24.6609993	-15.75	26.8239994	-4.831704617	-1.146844149	9.333878517	1.0
[LeftHandThumb2]
12	32.29800034	-18.64699936	18.64699936	5.814385414	23.10794449	-20.56118202	1.0
13	32.29800034	-18.64699936	18.64699936	5.43200779	19.29784584	-13.44367599	1.0
14	32.29800034	-18.64699936	18.64699936	4.45746088	15.57012653	-7.324809551	1.0
15	32.29800034	-18.64699936	18.64699936	3.319032192	12.18792057	-2.589682817	1.0
[LeftHandThumb3]
12	26.52600098	-15.31499958	15.31499958	3.601811159e-06	-8.438974328e-05	-6.943767221e-05	1.0
13	26.52600098	-15.31499958	15.31499958	3.601811159e-06	-8.438974328e-05	-6.943767221e-05	1.0
14	26.52600098	-15.31499958	15.31499958	3.601811159e-06	-8.438974328e-05	-6.943767221e-05	1.0
15	26.52600098	-15.31499958	15.31499958	3.601811159e-06	-8.438974328e-05	-6.943767221e-05	1.0
[LeftHandThumb4]
12	19.54599953	-11.28499985	11.28499985	0	0	0	1.0
13	19.54599953	-11.28499985	11.28499985	0	0	0	1.0
14	19.54599953	-11.28499985	11.28499985	0	0	0	1.0
15	19.54599953	-11.28499985	11.28499985	0	0	0	1.0
[LeftHandIndex1]
12	91.09299469	-5.170999527	22.60099792	-0.08855858445	-2.070158958	-61.37276459	1.0
13	91.09299469	-5.170999527	22.60099792	-0.7388387918	-2.038828373	-48.69264984	1.0
14	91.09299469	-5.170999527	22.60099792	-1.003961086	-1.929917097	-36.61689758	1.0
15	91.09299469	-5.170999527	22.60099792	-0.9100196958	-1.739036918	-25.83880806	1.0
[LeftHandIndex2]
12	36.76399994	0	0	-1.997755051	-4.947667122	-59.48801804	1.0
13	36.76399994	0	0	-1.842592239	-3.987921238	-51.86390686	1.0
14	36.76399994	0	0	-1.571434259	-2.934869289	-44.02547836	1.0
15	36.76399994	0	0	-1.210295796	-1.817053437	-35.98082733	1.0
[LeftHandIndex3]
12	28.83100128	0	0	-1.432096042e-06	3.907105395e-07	1.552835329e-06	1.0
13	28.83100128	0	0	-1.432096042e-06	3.907105395e-07	1.552835329e-06	1.0
14	28.83100128	0	0	-1.432096042e-06	3.907105395e-07	1.552835329e-06	1.0
15	28.83100128	0	0	-1.432096042e-06	3.907105395e-07	1.552835329e-06	1.0
[LeftHandIndex4]
12	23.92700005	0	0	0	0	0	1.0
13	23.92700005	0	0	0	0	0	1.0
14	23.92700005	0	0	0	0	0	1.0
15	23.92700005	0	0	0	0	0	1.0
[LeftHandMiddle1]
12	95.33399963	0	0	-1.584847093	-4.533079147	-61.95248795	1.0
13	95.33399963	0	0	-1.781947494	-3.495815754	-51.32381821	1.0
14	95.33399963	0	0	-1.728564143	-2.470320225	-41.11510849	1.0
15	95.33399963	0	0	-1.468150973	-1.523962855	-31.83128738	1.0
[LeftHandMiddle2]
12	36.98199844	0	0	-1.013656378	-5.773944855	-56.88207245	1.0
13	36.98199844	0	0	-1.053236365	-4.857954979	-48.57040787	1.0
14	36.98199844	0	0	-0.9751172066	-3.882946968	-40.22401047	1.0
15	36.98199844	0	0	-0.8007382751	-2.891248226	-31.99857521	1.0
[LeftHandMiddle3]
12	29.50900078	0	0	0	-3.180554719e-15	-7.951386796e-16	1.0
13	29.50900078	0	0	0	-3.180554719e-15	-7.951386796e-16	1.0
14	29.50900078	0	0	0	-3.180554719e-15	-7.951386796e-16	1.0
15	29.50900078	0	0	0	-3.180554719e-15	-7.951386796e-16	1.0
[LeftHandMiddle4]
12	28.3390007	0	0	0	0	0	1.0
13	28.3390007	0	0	0	0	0	1.0
14	28.3390007	0	0	0	0	0	1.0
15	28.3390007	0	0	0	0	0	1.0
[LeftHandRing1]
12	91.04499817	-0.4390000105	-18.65100098	-4.704683781	-3.202193737	-69.01137543	1.0
13	91.04499817	-0.4390000105	-18.65100098	-4.424142838	-0.950120151	-59.36760712	1.0
14	91.04499817	-0.4390000105	-18.65100098	-4.007205486	1.212420344	-50.08730698	1.0
15	91.04499817	-0.4390000105	-18.65100098	-3.544058561	3.12149024	-41.60429764	1.0
[LeftHandRing2]
12	31.54000092	0	0	4.185970783	-2.89293623	-55.92583847	1.0
13	31.54000092	0	0	3.524045706	-2.847734213	-50.26477051	1.0
14	31.54000092	0	0	2.860762596	-2.77093482	-44.36483002	1.0
15	31.54000092	0	0	2.219971895	-2.651354313	-38.21232605	1.0
[LeftHandRing3]
12	29.37700081	0	0	1.590277359e-15	3.180554719e-15	-7.951386796e-16	1.0
13	29.37700081	0	0	1.590277359e-15	3.180554719e-15	-7.951386796e-16	1.0
14	29.37700081	0	0	1.590277359e-15	3.180554719e-15	-7.951386796e-16	1.0
15	29.37700081	0	0	1.590277359e-15	3.180554719e-15	-7.951386796e-16	1.0
[LeftHandRing4]
12	26.47500038	0	0	0	0	0	1.0
13	26.47500038	0	0	0	0	0	1.0
14	26.47500038	0	0	0	0	0	1.0
15	26.47500038	0	0	0	0	0	1.0
[LeftHandPinky1]
12	80.77799988	-4.887000084	-38.06099701	-5.035734177	-2.72157526	-68.85375977	1.0
13	80.77799988	-4.887000084	-38.06099701	-4.944384575	0.8769706488	-58.8407402	1.0
14	80.77799988	-4.887000084	-38.06099701	-4.672870159	4.303376675	-49.25167847	1.0
15	80.77799988	-4.887000084	-38.06099701	-4.317238331	7.299306393	-40.54614258	1.0
[LeftHandPinky2]
12	36	0	0	8.555105209	-2.615942955	-66.44898987	1.0
13	36	0	0	7.669628143	-3.128644705	-61.1249733	1.0
14	36	0	0	6.741117954	-3.621929884	-55.6403656	1.0
15	36	0	0	5.802322388	-4.080551147	-50.00801849	1.0
[LeftHandPinky3]
12	21.14200211	0	0	3.226109357e-06	2.925280342e-06	-5.739977951e-06	1.0
13	21.14200211	0	0	3.226109357e-06	2.925280342e-06	-5.739977951e-06	1.0
14	21.14200211	0	0	3.226109357e-06	2.925280342e-06	-5.739977951e-06	1.0
15	21.14200211	0	0	3.226109357e-06	2.925280342e-06	-5.739977951e-06	1.0
[LeftHandPinky4]
12	19.75699997	0	0	0	0	0	1.0
13	19.75699997	0	0	0	0	0	1.0
14	19.75699997	0	0	0	0	0	1.0
15	19.75699997	0	0	0	0	0	1.0
[RightShoulder]
12	-45.70000076	109.4620056	-26.28000069	-0.01733755879	-2.460728884	3.901462317	1.0
13	-45.70000076	109.4620056	-26.28000069	0.07287213951	-1.885298848	5.535511494	1.0
14	-45.70000076	109.4620056	-26.28000069	0.2131303102	-1.061604023	7.36645937	1.0
15	-45.70000076	109.4620056	-26.28000069	0.3729504645	-0.1042175367	8.856044769	1.0
[RightArm]
12	-105.9280014	-5.248000145	-22.32099915	50.79925156	43.70170593	78.88861847	1.0
13	-105.9280014	-5.248000145	-22.32099915	47.84728622	38.58920288	73.93595123	1.0
14	-105.9280014	-5.248000145	-22.32099915	44.92475128	33.57002258	69.53600311	1.0
15	-105.9280014	-5.248000145	-22.32099915	42.16337204	29.29572105	65.52526855	1.0
[RightForeArm]
12	-278.414978	0	0	1.208474755	102.8638458	2.114816904	1.0
13	-278.414978	0	0	3.517730236	96.23932648	4.392298222	1.0
14	-278.414978	0	0	-3.255213976	87.78587341	-2.502698421	1.0
15	-278.414978	0	0	-0.2343175709	77.37580872	0.2998763323	1.0
[RightHand]
12	-283.2879944	0	0.0009999999311	16.45773888	21.21041107	-5.838574409	1.0
13	-283.2879944	0	0.0009999999311	15.46036148	20.94569397	-6.329734802	1.0
14	-283.2879944	0	0.0009999999311	13.48610401	19.27596474	-8.55700016	1.0
15	-283.2879944	0	0.0009999999311	10.47862816	16.54558182	-12.19173622	1.0
[RightHandPinky1]
12	-80.76699829	-4.885000229	-38.06000137	-1.864488721	2.749669552	69.08408356	1.0
13	-80.76699829	-4.885000229	-38.06000137	-1.778520226	-0.8488193154	59.06062317	1.0
14	-80.76699829	-4.885000229	-38.06000137	-1.511840224	-4.276120186	49.46209717	1.0
15	-80.76699829	-4.885000229	-38.06000137	-1.160265565	-7.273666859	40.74837494	1.0
[RightHandPinky2]
12	-36	0	0.0009999999311	10.48668766	5.493369579	66.59304047	1.0
13	-36	0	0.0009999999311	9.335597038	5.880155087	61.22822952	1.0
14	-36	0	0.0009999999311	8.146762848	6.218388557	55.70051956	1.0
15	-36	0	0.0009999999311	6.957334995	6.492511272	50.02473831	1.0
[RightHandPinky3]
12	-21.14200211	0	0	-1.590277359e-15	0	-7.951386796e-16	1.0
13	-21.14200211	0	0	-1.590277359e-15	0	-7.951386796e-16	1.0
14	-21.14200211	0	0	-1.590277359e-15	0	-7.951386796e-16	1.0
15	-21.14200211	0	0	-1.590277359e-15	0	-7.951386796e-16	1.0
[RightHandPinky4]
12	-19.75699997	0	0	0	0	0	1.0
13	-19.75699997	0	0	0	0	0	1.0
14	-19.75699997	0	0	0	0	0	1.0
15	-19.75699997	0	0	0	0	0	1.0
[RightHandRing1]
12	-91.03599548	-0.4390000105	-18.65100098	-3.227518797	3.17195034	68.4743042	1.0
13	-91.03599548	-0.4390000105	-18.65100098	-2.920583248	0.9891889691	58.87378311	1.0
14	-91.03599548	-0.4390000105	-18.65100098	-2.488508224	-1.124492764	49.60887909	1.0
15	-91.03599548	-0.4390000105	-18.65100098	-2.02210927	-3.024032593	41.09470367	1.0
[RightHandRing2]
12	-31.54000092	0	0	4.777079105	4.041303635	55.68185806	1.0
13	-31.54000092	0	0	3.954380751	3.894570112	49.55326843	1.0
14	-31.54000092	0	0	3.149218321	3.689862251	43.28326416	1.0
15	-31.54000092	0	0	2.393047094	3.424160719	36.92246628	1.0
[RightHandRing3]
12	-29.37700081	0	0	5.740008078e-07	-7.531911024e-07	-2.69121324e-06	1.0
13	-29.37700081	0	0	5.740008078e-07	-7.531911024e-07	-2.69121324e-06	1.0
14	-29.37700081	0	0	5.740008078e-07	-7.531911024e-07	-2.69121324e-06	1.0
15	-29.37700081	0	0	5.740008078e-07	-7.531911024e-07	-2.69121324e-06	1.0
[RightHandRing4]
12	-26.47500038	0	0	0	0	0	1.0
13	-26.47500038	0	0	0	0	0	1.0
14	-26.47500038	0	0	0	0	0	1.0
15	-26.47500038	0	0	0	0	0	1.0
[RightHandMiddle1]
12	-95.32500458	0	0	-2.701213598	4.614230633	62.5617981	1.0
13	-95.32500458	0	0	-2.912076712	3.626908541	52.29967499	1.0
14	-95.32500458	0	0	-2.888192892	2.645929575	42.44508362	1.0
15	-95.32500458	0	0	-2.668118238	1.733920813	33.48722076	1.0
[RightHandMiddle2]
12	-36.98199844	0	0	-1.521528006	4.840600014	57.08686829	1.0
13	-36.98199844	0	0	-1.426840425	4.075362206	49.25998688	1.0
14	-36.98199844	0	0	-1.244615197	3.266701937	41.36290359	1.0
15	-36.98199844	0	0	-0.9982555509	2.448592424	33.54496002	1.0
[RightHandMiddle3]
12	-29.50900078	0	0	1.856611448e-06	-0.002022909233	1.577868488e-06	1.0
13	-29.50900078	0	0	1.856611448e-06	-0.002022909233	1.577868488e-06	1.0
14	-29.50900078	0	0	1.856611448e-06	-0.002022909233	1.577868488e-06	1.0
15	-29.50900078	0	0	1.856611448e-06	-0.002022909233	1.577868488e-06	1.0
[RightHandMiddle4]
12	-28.3390007	0	0.0009999999311	0	0	0	1.0
13	-28.3390007	0	0.0009999999311	0	0	0	1.0
14	-28.3390007	0	0.0009999999311	0	0	0	1.0
15	-28.3390007	0	0.0009999999311	0	0	0	1.0
[RightHandIndex1]
12	-91.08300018	-5.167999744	22.60099792	-1.232713819	1.982254863	61.35356903	1.0
13	-91.08300018	-5.167999744	22.60099792	-1.907979727	1.88356483	48.6867981	1.0
14	-91.08300018	-5.167999744	22.60099792	-2.205154657	1.733881474	36.62355804	1.0
15	-91.08300018	-5.167999744	22.60099792	-2.140770912	1.542577624	25.85280991	1.0
[RightHandIndex2]
12	-36.76399994	0	0	-2.598690271	3.893129587	59.53602219	1.0
13	-36.76399994	0	0	-2.309563875	3.025105	51.91016769	1.0
14	-36.76399994	0	0	-1.914786339	2.084093809	44.06400681	1.0
15	-36.76399994	0	0	-1.443818331	1.097835541	36.00602722	1.0
[RightHandIndex3]
12	-28.83100128	0	0	-3.180554719e-15	0	0	1.0
13	-28.83100128	0	0	-3.180554719e-15	0	0	1.0
14	-28.83100128	0	0	-3.180554719e-15	0	0	1.0
15	-28.83100128	0	0	-3.180554719e-15	0	0	1.0
[RightHandIndex4]
12	-23.92700005	0	0	0	0	0	1.0
13	-23.92700005	0	0	0	0	0	1.0
14	-23.92700005	0	0	0	0	0	1.0
15	-23.92700005	0	0	0	0	0	1.0
[RightHandThumb1]
12	-24.64799881	-15.72700024	26.82600021	1.970150471	7.824628353	-4.711646557	1.0
13	-24.64799881	-15.72700024	26.82600021	-0.7511999011	5.014489174	-6.131120682	1.0
14	-24.64799881	-15.72700024	26.82600021	-3.224248171	2.617753744	-7.458220959	1.0
15	-24.64799881	-15.72700024	26.82600021	-5.185144424	0.8938676119	-8.658925056	1.0
[RightHandThumb2]
12	-32.29800034	-18.64699936	18.64699936	4.321055412	-19.83861542	23.62236786	1.0
13	-32.29800034	-18.64699936	18.64699936	5.108834743	-16.328722	15.61149979	1.0
14	-32.29800034	-18.64699936	18.64699936	5.37803793	-13.2761488	8.378452301	1.0
15	-32.29800034	-18.64699936	18.64699936	5.108767986	-10.76198769	2.645179033	1.0
[RightHandThumb3]
12	-26.52600098	-15.31399918	15.31399918	-3.81245151e-08	-0.00121095567	-0.001221005921	1.0
13	-26.52600098	-15.31399918	15.31399918	-3.81245151e-08	-0.00121095567	-0.001221005921	1.0
14	-26.52600098	-15.31399918	15.31399918	-3.81245151e-08	-0.00121095567	-0.001221005921	1.0
15	-26.52600098	-15.31399918	15.31399918	-3.81245151e-08	-0.00121095567	-0.001221005921	1.0
[RightHandThumb4]
12	-19.54599953	-11.28499985	11.28499985	0	0	0	1.0
13	-19.54599953	-11.28499985	11.28499985	0	0	0	1.0
14	-19.54599953	-11.28499985	11.28499985	0	0	0	1.0
15	-19.54599953	-11.28499985	11.28499985	0	0	0	1.0
[LeftUpLeg]
12	82.07800293	-67.51699829	-15.99599934	-19.85195541	20.10371208	7.70935154	1.0
13	82.07800293	-67.51699829	-15.99599934	-23.84169197	20.11152649	8.199221611	1.0
14	82.07800293	-67.51699829	-15.99599934	-28.75943947	20.13365936	8.752463341	1.0
15	82.07800293	-67.51699829	-15.99599934	-34.37460327	19.99648476	9.103718758	1.0
[LeftLeg]
12	0	-443.7049866	2.845999956	29.69969177	1.473981023	1.265686154	1.0
13	0	-443.7049866	2.845999956	34.04566956	1.135885835	0.9640299082	1.0
14	0	-443.7049866	2.845999956	39.49730682	0.2971463799	0.1991157979	1.0
15	0	-443.7049866	2.845999956	45.54125214	-0.7118903399	-0.7040324807	1.0
[LeftFoot]
12	0	-444.2789917	-29.8219986	-3.049325943	0.5538277626	-10.9423027	1.0
13	0	-444.2789917	-29.8219986	-4.240171909	0.3474923074	-11.07500553	1.0
14	0	-444.2789917	-29.8219986	-5.698864937	0.1336754113	-11.08850861	1.0
15	0	-444.2789917	-29.8219986	-7.216648102	-0.05123634636	-11.19191074	1.0
[LeftToeBase]
12	0	-87.28699493	107.1060028	2.666100025	6.014111932e-06	-1.390416514e-06	1.0
13	0	-87.28699493	107.1060028	2.457402468	-3.997906788e-06	-2.971670256e-06	1.0
14	0	-87.28699493	107.1060028	2.160571098	-4.589621312e-06	-2.530278607e-06	1.0
15	0	-87.28699493	107.1060028	1.91788578	6.169599374e-07	-1.751256775e-07	1.0
[RightUpLeg]
12	-82.07800293	-67.51699829	-15.99599934	-8.893535614	-9.276353836	-9.749630928	1.0
13	-82.07800293	-67.51699829	-15.99599934	-12.61988068	-8.633530617	-8.656861305	1.0
14	-82.07800293	-67.51699829	-15.99599934	-16.74944687	-8.154060364	-7.485938072	1.0
15	-82.07800293	-67.51699829	-15.99599934	-21.31683731	-7.936141968	-6.510275841	1.0
[RightLeg]
12	0	-443.7049866	2.861999989	36.80813599	-0.1143031642	-8.355680466	1.0
13	0	-443.7049866	2.861999989	41.75004578	-0.5588641763	-9.045531273	1.0
14	0	-443.7049866	2.861999989	47.83467102	-1.107943058	-10.08359146	1.0
15	0	-443.7049866	2.861999989	54.74310684	-1.531315923	-11.19105721	1.0
[RightFoot]
12	0	-444.2770081	-29.83799934	-21.57559586	1.683257937	13.89562798	1.0
13	0	-444.2770081	-29.83799934	-23.54327774	1.921396732	13.91620255	1.0
14	0	-444.2770081	-29.83799934	-26.04203606	2.293107033	14.10387516	1.0
15	0	-444.2770081	-29.83799934	-28.93955803	2.742293358	14.33674049	1.0
[RightToeBase]
12	0	-87.28699493	107.1060028	-1.626429677	-5.401096132e-05	2.868332558e-06	1.0
13	0	-87.28699493	107.1060028	-1.72987318	-2.813498941e-05	-2.042456373e-07	1.0
14	0	-87.28699493	107.1060028	-1.783567786	1.97164627e-05	-3.081162731e-06	1.0
15	0	-87.28699493	107.1060028	-1.844269633	3.312448462e-05	-3.682736406e-06	1.0
[EndOfFile]
